FT88-Serif.ufo
<glyph name="ampersand" format="2">
	<advance width="700"/>
	<unicode hex="0026"/>
	<outline>
		<contour>
			<point x="400" y="0" type="line"/>
			<point x="400" y="100" type="line"/>
			<point x="100" y="100" type="line"/>
			<point x="100" y="0" type="line"/>
		</contour>
		<contour>
			<point x="700" y="0" type="line"/>
			<point x="700" y="100" type="line"/>
			<point x="500" y="100" type="line"/>
			<point x="500" y="0" type="line"/>
		</contour>
		<contour>
			<point x="100" y="100" type="line"/>
			<point x="100" y="200" type="line"/>
			<point x="0" y="200" type="line"/>
			<point x="0" y="100" type="line"/>
		</contour>
		<contour>
			<point x="500" y="100" type="line"/>
			<point x="500" y="200" type="line"/>
			<point x="400" y="200" type="line"/>
			<point x="400" y="100" type="line"/>
		</contour>
		<contour>
			<point x="100" y="200" type="line"/>
			<point x="100" y="300" type="line"/>
			<point x="0" y="300" type="line"/>
			<point x="0" y="200" type="line"/>
		</contour>
		<contour>
			<point x="500" y="200" type="line"/>
			<point x="500" y="300" type="line"/>
		</contour>
		<contour>
			<point x="400" y="300" type="line"/>
			<point x="400" y="400" type="line"/>
			<point x="100" y="400" type="line"/>
			<point x="100" y="300" type="line"/>
			<point x="300" y="300" type="line"/>
		</contour>
		<contour>
			<point x="100" y="400" type="line"/>
			<point x="100" y="550" type="line"/>
			<point x="0" y="550" type="line"/>
			<point x="0" y="400" type="line"/>
		</contour>
		<contour>
			<point x="500" y="400" type="line"/>
			<point x="500" y="550" type="line"/>
			<point x="400" y="550" type="line"/>
			<point x="400" y="400" type="line"/>
		</contour>
		<contour>
			<point x="400" y="550" type="line"/>
			<point x="400" y="650" type="line"/>
			<point x="100" y="650" type="line"/>
			<point x="100" y="550" type="line"/>
		</contour>
		<contour>
			<point x="400" y="300" type="line"/>
			<point x="400" y="200" type="line"/>
			<point x="500" y="200" type="line"/>
			<point x="500" y="300" type="line"/>
		</contour>
		<contour>
			<point x="500" y="400" type="line"/>
			<point x="500" y="300" type="line"/>
			<point x="700" y="300" type="line"/>
			<point x="700" y="400" type="line"/>
		</contour>
	</outline>
</glyph>
<glyph name="hyphen" format="2">
	<advance width="700"/>
	<unicode hex="002D"/>
	<note>
		hyphen
	</note>
	<outline>
		<contour>
			<point x="501" y="190" type="line"/>
			<point x="501" y="290" type="line"/>
			<point x="201" y="290" type="line"/>
			<point x="201" y="190" type="line"/>
		</contour>
	</outline>
</glyph>
<glyph name="five" format="2">
	<advance width="700"/>
	<unicode hex="0035"/>
	<note>
		five
	</note>
	<outline>
		<contour>
			<point x="200" y="500" type="line"/>
			<point x="200" y="600" type="line"/>
			<point x="600" y="600" type="line"/>
			<point x="600" y="700" type="line"/>
			<point x="100" y="700" type="line"/>
			<point x="100" y="400" type="line"/>
			<point x="500" y="400" type="line"/>
			<point x="500" y="500" type="line"/>
		</contour>
		<contour>
			<point x="600" y="400" type="line"/>
			<point x="500" y="400" type="line"/>
			<point x="500" y="100" type="line"/>
			<point x="600" y="100" type="line"/>
		</contour>
		<contour>
			<point x="200" y="200" type="line"/>
			<point x="100" y="200" type="line"/>
			<point x="100" y="100" type="line"/>
			<point x="200" y="100" type="line"/>
		</contour>
		<contour>
			<point x="500" y="0" type="line"/>
			<point x="500" y="100" type="line"/>
			<point x="200" y="100" type="line"/>
			<point x="200" y="0" type="line"/>
		</contour>
	</outline>
</glyph>
<glyph name="semicolon" format="2">
	<advance width="700"/>
	<unicode hex="003B"/>
	<note>
		semicolon
	</note>
	<outline>
		<contour>
			<point x="300" y="100" type="line"/>
			<point x="300" y="-100" type="line"/>
			<point x="400" y="-100" type="line"/>
			<point x="400" y="-55"/>
			<point x="402" y="45"/>
			<point x="400" y="0" type="curve"/>
			<point x="400" y="100" type="line"/>
		</contour>
		<contour>
			<point x="400" y="500" type="line"/>
			<point x="300" y="500" type="line"/>
			<point x="300" y="400" type="line"/>
			<point x="400" y="400" type="line"/>
		</contour>
		<contour>
			<point x="300" y="-100" type="line"/>
			<point x="200" y="-100" type="line"/>
			<point x="200" y="-200" type="line"/>
			<point x="300" y="-200" type="line"/>
		</contour>
	</outline>
</glyph>
<glyph name="equal" format="2">
	<advance width="700"/>
	<unicode hex="003D"/>
	<outline>
		<contour>
			<point x="600" y="400" type="line"/>
			<point x="100" y="400" type="line"/>
			<point x="100" y="300" type="line"/>
			<point x="600" y="300" type="line"/>
		</contour>
		<contour>
			<point x="600" y="200" type="line"/>
			<point x="100" y="200" type="line"/>
			<point x="100" y="100" type="line"/>
			<point x="600" y="100" type="line"/>
		</contour>
	</outline>
</glyph>
<glyph name="A" format="2">
	<advance width="700"/>
	<unicode hex="0041"/>
	<note>
		A
	</note>
	<outline>
		<contour>
			<point x="500" y="700" type="line"/>
			<point x="200" y="700" type="line"/>
			<point x="200" y="600" type="line"/>
			<point x="500" y="600" type="line"/>
		</contour>
		<contour>
			<point x="200" y="600" type="line"/>
			<point x="100" y="600" type="line"/>
			<point x="100" y="100" type="line"/>
			<point x="0" y="100" type="line"/>
			<point x="0" y="0" type="line"/>
			<point x="300" y="0" type="line"/>
			<point x="300" y="100" type="line"/>
			<point x="200" y="100" type="line"/>
			<point x="200" y="200" type="line"/>
			<point x="500" y="200" type="line"/>
			<point x="500" y="100" type="line"/>
			<point x="400" y="100" type="line"/>
			<point x="400" y="0" type="line"/>
			<point x="700" y="0" type="line"/>
			<point x="700" y="100" type="line"/>
			<point x="600" y="100" type="line"/>
			<point x="600" y="600" type="line"/>
			<point x="500" y="600" type="line"/>
			<point x="500" y="300" type="line"/>
			<point x="200" y="300" type="line"/>
		</contour>
	</outline>
</glyph>
<glyph name="L" format="2">
	<advance width="700"/>
	<unicode hex="004C"/>
	<note>
		L
	</note>
	<outline>
		<contour>
			<point x="600" y="200" type="line"/>
			<point x="500" y="200" type="line"/>
			<point x="500" y="100" type="line"/>
			<point x="200" y="100" type="line"/>
			<point x="200" y="600" type="line"/>
			<point x="300" y="600" type="line"/>
			<point x="300" y="700" type="line"/>
			<point x="0" y="700" type="line"/>
			<point x="0" y="600" type="line"/>
			<point x="100" y="600" type="line"/>
			<point x="100" y="100" type="line"/>
			<point x="0" y="100" type="line"/>
			<point x="0" y="0" type="line"/>
			<point x="600" y="0" type="line"/>
		</contour>
	</outline>
</glyph>
<glyph name="M" format="2">
	<advance width="700"/>
	<unicode hex="004D"/>
	<note>
		M
	</note>
	<outline>
		<contour>
			<point x="100" y="600" type="line"/>
			<point x="100" y="100" type="line"/>
			<point x="0" y="100" type="line"/>
			<point x="0" y="0" type="line"/>
			<point x="300" y="0" type="line"/>
			<point x="300" y="100" type="line"/>
			<point x="200" y="100" type="line"/>
			<point x="200" y="500" type="line"/>
			<point x="300" y="500" type="line"/>
			<point x="300" y="600" type="line"/>
			<point x="200" y="600" type="line"/>
			<point x="200" y="700" type="line"/>
			<point x="0" y="700" type="line"/>
			<point x="0" y="600" type="line"/>
		</contour>
		<contour>
			<point x="500" y="600" type="line"/>
			<point x="400" y="600" type="line"/>
			<point x="400" y="500" type="line"/>
			<point x="500" y="500" type="line"/>
			<point x="500" y="100" type="line"/>
			<point x="400" y="100" type="line"/>
			<point x="400" y="0" type="line"/>
			<point x="700" y="0" type="line"/>
			<point x="700" y="100" type="line"/>
			<point x="600" y="100" type="line"/>
			<point x="600" y="600" type="line"/>
			<point x="700" y="600" type="line"/>
			<point x="700" y="700" type="line"/>
			<point x="500" y="700" type="line"/>
		</contour>
		<contour>
			<point x="400" y="500" type="line"/>
			<point x="300" y="500" type="line"/>
			<point x="300" y="400" type="line"/>
			<point x="400" y="400" type="line"/>
		</contour>
	</outline>
</glyph>
<glyph name="Y" format="2">
	<advance width="700"/>
	<unicode hex="0059"/>
	<note>
		Y
	</note>
	<outline>
		<contour>
			<point x="200" y="600" type="line"/>
			<point x="300" y="600" type="line"/>
			<point x="300" y="700" type="line"/>
			<point x="0" y="700" type="line"/>
			<point x="0" y="600" type="line"/>
			<point x="100" y="600" type="line"/>
			<point x="100" y="500" type="line"/>
			<point x="200" y="500" type="line"/>
		</contour>
		<contour>
			<point x="700" y="600" type="line"/>
			<point x="700" y="700" type="line"/>
			<point x="400" y="700" type="line"/>
			<point x="400" y="600" type="line"/>
			<point x="500" y="600" type="line"/>
			<point x="500" y="500" type="line"/>
			<point x="600" y="500" type="line"/>
			<point x="600" y="600" type="line"/>
		</contour>
		<contour>
			<point x="300" y="500" type="line"/>
			<point x="200" y="500" type="line"/>
			<point x="200" y="400" type="line"/>
			<point x="300" y="400" type="line"/>
		</contour>
		<contour>
			<point x="400" y="500" type="line"/>
			<point x="400" y="400" type="line"/>
			<point x="500" y="400" type="line"/>
			<point x="500" y="500" type="line"/>
		</contour>
		<contour>
			<point x="400" y="400" type="line"/>
			<point x="300" y="400" type="line"/>
			<point x="300" y="100" type="line"/>
			<point x="200" y="100" type="line"/>
			<point x="200" y="0" type="line"/>
			<point x="500" y="0" type="line"/>
			<point x="500" y="100" type="line"/>
			<point x="400" y="100" type="line"/>
		</contour>
	</outline>
</glyph>
<glyph name="b" format="2">
	<advance width="700"/>
	<unicode hex="0062"/>
	<note>
		b
	</note>
	<outline>
		<contour>
			<point x="0" y="600" type="line"/>
			<point x="100" y="600" type="line"/>
			<point x="100" y="100" type="line"/>
			<point x="200" y="100" type="line"/>
			<point x="200" y="300" type="line"/>
			<point x="300" y="300" type="line"/>
			<point x="300" y="400" type="line"/>
			<point x="200" y="400" type="line"/>
			<point x="200" y="700" type="line"/>
			<point x="0" y="700" type="line"/>
		</contour>
		<contour>
			<point x="300" y="400" type="line"/>
			<point x="500" y="400" type="line"/>
			<point x="500" y="500" type="line"/>
			<point x="300" y="500" type="line"/>
		</contour>
		<contour>
			<point x="500" y="400" type="line"/>
			<point x="500" y="100" type="line"/>
			<point x="600" y="100" type="line"/>
			<point x="600" y="400" type="line"/>
		</contour>
		<contour>
			<point x="500" y="100" type="line"/>
			<point x="200" y="100" type="line"/>
			<point x="200" y="0" type="line"/>
			<point x="500" y="0" type="line"/>
		</contour>
	</outline>
</glyph>
<glyph name="o" format="2">
	<advance width="700"/>
	<unicode hex="006F"/>
	<note>
		o
	</note>
	<outline>
		<contour>
			<point x="500" y="500" type="line"/>
			<point x="200" y="500" type="line"/>
			<point x="200" y="400" type="line"/>
			<point x="500" y="400" type="line"/>
		</contour>
		<contour>
			<point x="100" y="100" type="line"/>
			<point x="200" y="100" type="line"/>
			<point x="200" y="400" type="line"/>
			<point x="100" y="400" type="line"/>
		</contour>
		<contour>
			<point x="600" y="400" type="line"/>
			<point x="500" y="400" type="line"/>
			<point x="500" y="100" type="line"/>
			<point x="600" y="100" type="line"/>
		</contour>
		<contour>
			<point x="200" y="100" type="line"/>
			<point x="200" y="0" type="line"/>
			<point x="500" y="0" type="line"/>
			<point x="500" y="100" type="line"/>
		</contour>
	</outline>
</glyph>
<glyph name="t" format="2">
	<advance width="700"/>
	<unicode hex="0074"/>
	<note>
		t
	</note>
	<outline>
		<contour>
			<point x="200" y="100" type="line"/>
			<point x="300" y="100" type="line"/>
			<point x="300" y="400" type="line"/>
			<point x="600" y="400" type="line"/>
			<point x="600" y="500" type="line"/>
			<point x="300" y="500" type="line"/>
			<point x="300" y="600" type="line"/>
			<point x="200" y="600" type="line"/>
			<point x="200" y="500" type="line"/>
			<point x="100" y="500" type="line"/>
			<point x="100" y="400" type="line"/>
			<point x="200" y="400" type="line"/>
		</contour>
		<contour>
			<point x="600" y="200" type="line"/>
			<point x="500" y="200" type="line"/>
			<point x="500" y="100" type="line"/>
			<point x="600" y="100" type="line"/>
		</contour>
		<contour>
			<point x="300" y="100" type="line"/>
			<point x="300" y="0" type="line"/>
			<point x="500" y="0" type="line"/>
			<point x="500" y="100" type="line"/>
		</contour>
	</outline>
</glyph>
<glyph name="degree" format="2">
	<advance width="700"/>
	<unicode hex="00B0"/>
	<outline>
		<contour>
			<point x="400" y="700" type="line"/>
			<point x="300" y="700" type="line"/>
			<point x="300" y="600" type="line"/>
			<point x="400" y="600" type="line"/>
		</contour>
		<contour>
			<point x="500" y="600" type="line"/>
			<point x="400" y="600" type="line"/>
			<point x="400" y="400" type="line"/>
			<point x="500" y="400" type="line"/>
		</contour>
		<contour>
			<point x="400" y="300" type="line"/>
			<point x="400" y="400" type="line"/>
			<point x="300" y="400" type="line"/>
			<point x="300" y="300" type="line"/>
		</contour>
		<contour>
			<point x="200" y="400" type="line"/>
			<point x="300" y="400" type="line"/>
			<point x="300" y="600" type="line"/>
			<point x="200" y="600" type="line"/>
		</contour>
	</outline>
</glyph>
<glyph name="periodcentered" format="2">
	<advance width="600"/>
	<unicode hex="00B7"/>
	<outline>
		<contour>
			<point x="250" y="350" type="line"/>
			<point x="250" y="250" type="line"/>
			<point x="350" y="250" type="line"/>
			<point x="350" y="350" type="line"/>
		</contour>
	</outline>
</glyph>
<glyph name="Eacute" format="2">
	<advance width="700"/>
	<unicode hex="00C9"/>
	<outline>
		<contour>
			<point x="100" y="400" type="line"/>
			<point x="100" y="100" type="line"/>
			<point x="0" y="100" type="line"/>
			<point x="0" y="0" type="line"/>
			<point x="600" y="0" type="line"/>
			<point x="600" y="200" type="line"/>
			<point x="500" y="200" type="line"/>
			<point x="500" y="100" type="line"/>
			<point x="200" y="100" type="line"/>
			<point x="200" y="200" type="line"/>
			<point x="400" y="200" type="line"/>
			<point x="400" y="300" type="line"/>
			<point x="200" y="300" type="line"/>
			<point x="200" y="400" type="line"/>
			<point x="500" y="400" type="line"/>
			<point x="500" y="300" type="line"/>
			<point x="600" y="300" type="line"/>
			<point x="600" y="500" type="line"/>
			<point x="0" y="500" type="line"/>
			<point x="0" y="400" type="line"/>
		</contour>
		<component base="acutecomb"/>
	</outline>
</glyph>
<glyph name="Iacute" format="2">
	<advance width="700"/>
	<unicode hex="00CD"/>
	<outline>
		<contour>
			<point x="100" y="400" type="line"/>
			<point x="300" y="400" type="line"/>
			<point x="300" y="100" type="line"/>
			<point x="100" y="100" type="line"/>
			<point x="100" y="0" type="line"/>
			<point x="600" y="0" type="line"/>
			<point x="600" y="100" type="line"/>
			<point x="400" y="100" type="line"/>
			<point x="400" y="400" type="line"/>
			<point x="600" y="400" type="line"/>
			<point x="600" y="500" type="line"/>
			<point x="100" y="500" type="line"/>
		</contour>
		<component base="acutecomb" xOffset="100"/>
	</outline>
</glyph>
<glyph name="Icircumflex" format="2">
	<advance width="700"/>
	<unicode hex="00CE"/>
	<outline>
		<contour>
			<point x="100" y="400" type="line"/>
			<point x="300" y="400" type="line"/>
			<point x="300" y="100" type="line"/>
			<point x="100" y="100" type="line"/>
			<point x="100" y="0" type="line"/>
			<point x="600" y="0" type="line"/>
			<point x="600" y="100" type="line"/>
			<point x="400" y="100" type="line"/>
			<point x="400" y="400" type="line"/>
			<point x="600" y="400" type="line"/>
			<point x="600" y="500" type="line"/>
			<point x="100" y="500" type="line"/>
		</contour>
		<component base="circumflexcomb"/>
	</outline>
</glyph>
<glyph name="Ugrave" format="2">
	<advance width="700"/>
	<unicode hex="00D9"/>
	<outline>
		<contour>
			<point x="100" y="100" type="line"/>
			<point x="200" y="100" type="line"/>
			<point x="200" y="400" type="line"/>
			<point x="300" y="400" type="line"/>
			<point x="300" y="500" type="line"/>
			<point x="0" y="500" type="line"/>
			<point x="0" y="400" type="line"/>
			<point x="100" y="400" type="line"/>
		</contour>
		<contour>
			<point x="700" y="400" type="line"/>
			<point x="700" y="500" type="line"/>
			<point x="400" y="500" type="line"/>
			<point x="400" y="400" type="line"/>
			<point x="500" y="400" type="line"/>
			<point x="500" y="100" type="line"/>
			<point x="600" y="100" type="line"/>
			<point x="600" y="400" type="line"/>
		</contour>
		<contour>
			<point x="500" y="0" type="line"/>
			<point x="500" y="100" type="line"/>
			<point x="200" y="100" type="line"/>
			<point x="200" y="0" type="line"/>
		</contour>
		<component base="gravecomb"/>
	</outline>
</glyph>
<glyph name="idotless" format="2">
	<advance width="700"/>
	<unicode hex="0131"/>
	<anchor x="350" y="0" name="bottom"/>
	<anchor x="650" y="0" name="ogonek"/>
	<anchor x="350" y="500" name="top"/>
	<outline>
		<contour>
			<point x="100" y="400" type="line"/>
			<point x="300" y="400" type="line"/>
			<point x="300" y="100" type="line"/>
			<point x="100" y="100" type="line"/>
			<point x="100" y="0" type="line"/>
			<point x="600" y="0" type="line"/>
			<point x="600" y="100" type="line"/>
			<point x="400" y="100" type="line"/>
			<point x="400" y="500" type="line"/>
			<point x="100" y="500" type="line"/>
		</contour>
	</outline>
</glyph>
<glyph name="acutecomb" format="2">
	<advance width="700"/>
	<unicode hex="0301"/>
	<anchor x="350" y="500" name="_top"/>
	<anchor x="350" y="700" name="top"/>
	<outline>
		<contour>
			<point x="200" y="600" type="line"/>
			<point x="200" y="500" type="line"/>
			<point x="300" y="500" type="line"/>
			<point x="300" y="600" type="line"/>
		</contour>
		<contour>
			<point x="300" y="700" type="line"/>
			<point x="300" y="600" type="line"/>
			<point x="400" y="600" type="line"/>
			<point x="400" y="700" type="line"/>
		</contour>
	</outline>
</glyph>
<glyph name="tildecomb" format="2">
	<advance width="700"/>
	<unicode hex="0303"/>
	<anchor x="400" y="500" name="_top"/>
	<anchor x="400" y="700" name="top"/>
	<outline>
		<contour>
			<point x="200" y="600" type="line"/>
			<point x="200" y="500" type="line"/>
			<point x="300" y="500" type="line"/>
			<point x="300" y="600" type="line"/>
		</contour>
		<contour>
			<point x="300" y="700" type="line"/>
			<point x="300" y="600" type="line"/>
			<point x="400" y="600" type="line"/>
			<point x="400" y="700" type="line"/>
		</contour>
		<contour>
			<point x="400" y="600" type="line"/>
			<point x="400" y="500" type="line"/>
			<point x="500" y="500" type="line"/>
			<point x="500" y="600" type="line"/>
		</contour>
		<contour>
			<point x="500" y="700" type="line"/>
			<point x="500" y="600" type="line"/>
			<point x="600" y="600" type="line"/>
			<point x="600" y="700" type="line"/>
		</contour>
	</outline>
</glyph>
<glyph name="cedillacomb" format="2">
	<advance width="700"/>
	<unicode hex="0327"/>
	<anchor x="350" y="0" name="_bottom"/>
	<anchor x="350" y="-200" name="bottom"/>
	<outline>
		<contour>
			<point x="350" y="-200" type="line"/>
			<point x="350" y="-100" type="line"/>
			<point x="150" y="-100" type="line"/>
			<point x="150" y="-200" type="line"/>
		</contour>
		<contour>
			<point x="450" y="-100" type="line"/>
			<point x="450" y="0" type="line"/>
			<point x="350" y="0" type="line"/>
			<point x="350" y="-100" type="line"/>
		</contour>
		<contour>
			<point x="350" y="0" type="line"/>
			<point x="350" y="100" type="line"/>
			<point x="250" y="100" type="line"/>
			<point x="250" y="0" type="line"/>
		</contour>
	</outline>
</glyph>
<glyph name="bullet" format="2">
	<advance width="700"/>
	<unicode hex="2022"/>
	<outline>
		<contour>
			<point x="300" y="450" type="line"/>
			<point x="300" y="350" type="line"/>
			<point x="400" y="350" type="line"/>
			<point x="400" y="450" type="line"/>
		</contour>
		<contour>
			<point x="300" y="250" type="line"/>
			<point x="300" y="150" type="line"/>
			<point x="400" y="150" type="line"/>
			<point x="400" y="250" type="line"/>
		</contour>
		<contour>
			<point x="400" y="350" type="line"/>
			<point x="400" y="250" type="line"/>
			<point x="500" y="250" type="line"/>
			<point x="500" y="350" type="line"/>
		</contour>
		<contour>
			<point x="200" y="350" type="line"/>
			<point x="200" y="250" type="line"/>
			<point x="300" y="250" type="line"/>
			<point x="300" y="350" type="line"/>
		</contour>
	</outline>
</glyph>
<glyph name="Adieresis.ss01" format="2">
	<advance width="700"/>
	<outline>
		<contour>
			<point x="500" y="700" type="line"/>
			<point x="200" y="700" type="line"/>
			<point x="200" y="600" type="line"/>
			<point x="500" y="600" type="line"/>
		</contour>
		<contour>
			<point x="200" y="600" type="line"/>
			<point x="100" y="600" type="line"/>
			<point x="100" y="100" type="line"/>
			<point x="0" y="100" type="line"/>
			<point x="0" y="0" type="line"/>
			<point x="300" y="0" type="line"/>
			<point x="300" y="100" type="line"/>
			<point x="200" y="100" type="line"/>
			<point x="200" y="200" type="line"/>
			<point x="500" y="200" type="line"/>
			<point x="500" y="100" type="line"/>
			<point x="400" y="100" type="line"/>
			<point x="400" y="0" type="line"/>
			<point x="700" y="0" type="line"/>
			<point x="700" y="100" type="line"/>
			<point x="600" y="100" type="line"/>
			<point x="600" y="600" type="line"/>
			<point x="500" y="600" type="line"/>
			<point x="500" y="300" type="line"/>
			<point x="200" y="300" type="line"/>
		</contour>
		<component base="dieresiscomb" yOffset="200"/>
	</outline>
</glyph>
<glyph name="Idieresis.ss01" format="2">
	<advance width="700"/>
	<outline>
		<contour>
			<point x="100" y="600" type="line"/>
			<point x="300" y="600" type="line"/>
			<point x="300" y="100" type="line"/>
			<point x="100" y="100" type="line"/>
			<point x="100" y="0" type="line"/>
			<point x="600" y="0" type="line"/>
			<point x="600" y="100" type="line"/>
			<point x="400" y="100" type="line"/>
			<point x="400" y="600" type="line"/>
			<point x="600" y="600" type="line"/>
			<point x="600" y="700" type="line"/>
			<point x="100" y="700" type="line"/>
		</contour>
		<component base="dieresiscomb" yOffset="200"/>
	</outline>
</glyph>
<glyph name="Ntilde.ss01" format="2">
	<advance width="700"/>
	<outline>
		<contour>
			<point x="100" y="600" type="line"/>
			<point x="100" y="100" type="line"/>
			<point x="0" y="100" type="line"/>
			<point x="0" y="0" type="line"/>
			<point x="200" y="0" type="line"/>
			<point x="200" y="400" type="line"/>
			<point x="300" y="400" type="line"/>
			<point x="300" y="500" type="line"/>
			<point x="200" y="500" type="line"/>
			<point x="200" y="700" type="line"/>
			<point x="0" y="700" type="line"/>
			<point x="0" y="600" type="line"/>
		</contour>
		<contour>
			<point x="500" y="300" type="line"/>
			<point x="400" y="300" type="line"/>
			<point x="400" y="200" type="line"/>
			<point x="500" y="200" type="line"/>
			<point x="500" y="0" type="line"/>
			<point x="600" y="0" type="line"/>
			<point x="600" y="600" type="line"/>
			<point x="700" y="600" type="line"/>
			<point x="700" y="700" type="line"/>
			<point x="400" y="700" type="line"/>
			<point x="400" y="600" type="line"/>
			<point x="500" y="600" type="line"/>
		</contour>
		<contour>
			<point x="400" y="400" type="line"/>
			<point x="300" y="400" type="line"/>
			<point x="300" y="300" type="line"/>
			<point x="400" y="300" type="line"/>
		</contour>
		<component base="tildecomb" yOffset="200"/>
	</outline>
</glyph>
<glyph name="Udieresis.ss01" format="2">
	<advance width="700"/>
	<outline>
		<contour>
			<point x="100" y="100" type="line"/>
			<point x="200" y="100" type="line"/>
			<point x="200" y="600" type="line"/>
			<point x="300" y="600" type="line"/>
			<point x="300" y="700" type="line"/>
			<point x="0" y="700" type="line"/>
			<point x="0" y="600" type="line"/>
			<point x="100" y="600" type="line"/>
		</contour>
		<contour>
			<point x="700" y="600" type="line"/>
			<point x="700" y="700" type="line"/>
			<point x="400" y="700" type="line"/>
			<point x="400" y="600" type="line"/>
			<point x="500" y="600" type="line"/>
			<point x="500" y="100" type="line"/>
			<point x="600" y="100" type="line"/>
			<point x="600" y="600" type="line"/>
		</contour>
		<contour>
			<point x="500" y="0" type="line"/>
			<point x="500" y="100" type="line"/>
			<point x="200" y="100" type="line"/>
			<point x="200" y="0" type="line"/>
		</contour>
		<component base="dieresiscomb" yOffset="200"/>
	</outline>
</glyph>
